<mxfile host="65bd71144e">
    <diagram id="VRIWvG7t2p2S4sPS8mSp" name="Page-1">
        <mxGraphModel dx="1194" dy="827" grid="1" gridSize="10" guides="1" tooltips="1" connect="1" arrows="1" fold="1" page="1" pageScale="1" pageWidth="1169" pageHeight="827" math="0" shadow="0">
            <root>
                <mxCell id="0"/>
                <mxCell id="1" parent="0"/>
                <mxCell id="4" value="Исполнение услуги" style="swimlane;html=1;childLayout=stackLayout;resizeParent=1;resizeParentMax=0;horizontal=0;startSize=20;horizontalStack=0;whiteSpace=wrap;" parent="1" vertex="1">
                    <mxGeometry x="40" y="40" width="2250" height="400" as="geometry"/>
                </mxCell>
                <mxCell id="5" value="Заказчик" style="swimlane;html=1;startSize=20;horizontal=0;" parent="4" vertex="1">
                    <mxGeometry x="20" width="2230" height="120" as="geometry">
                        <mxRectangle x="20" width="710" height="30" as="alternateBounds"/>
                    </mxGeometry>
                </mxCell>
                <mxCell id="15" value="" style="edgeStyle=none;html=1;" parent="5" source="12" edge="1">
                    <mxGeometry relative="1" as="geometry">
                        <mxPoint x="150" y="60" as="targetPoint"/>
                    </mxGeometry>
                </mxCell>
                <mxCell id="12" value="" style="points=[[0.145,0.145,0],[0.5,0,0],[0.855,0.145,0],[1,0.5,0],[0.855,0.855,0],[0.5,1,0],[0.145,0.855,0],[0,0.5,0]];shape=mxgraph.bpmn.event;html=1;verticalLabelPosition=bottom;labelBackgroundColor=#ffffff;verticalAlign=top;align=center;perimeter=ellipsePerimeter;outlineConnect=0;aspect=fixed;outline=standard;symbol=general;" parent="5" vertex="1">
                    <mxGeometry x="60" y="35" width="50" height="50" as="geometry"/>
                </mxCell>
                <mxCell id="13" value="Появление&lt;br&gt;потребности в услуге" style="text;html=1;align=center;verticalAlign=middle;resizable=0;points=[];autosize=1;strokeColor=none;fillColor=none;" parent="5" vertex="1">
                    <mxGeometry x="15" y="80" width="140" height="40" as="geometry"/>
                </mxCell>
                <mxCell id="22" value="Публикация задачи" style="points=[[0.25,0,0],[0.5,0,0],[0.75,0,0],[1,0.25,0],[1,0.5,0],[1,0.75,0],[0.75,1,0],[0.5,1,0],[0.25,1,0],[0,0.75,0],[0,0.5,0],[0,0.25,0]];shape=mxgraph.bpmn.task;whiteSpace=wrap;rectStyle=rounded;size=10;html=1;taskMarker=abstract;" parent="5" vertex="1">
                    <mxGeometry x="470" y="20" width="120" height="80" as="geometry"/>
                </mxCell>
                <mxCell id="68" value="" style="edgeStyle=orthogonalEdgeStyle;rounded=0;html=1;" parent="5" edge="1">
                    <mxGeometry relative="1" as="geometry">
                        <mxPoint x="1441" y="60" as="sourcePoint"/>
                        <mxPoint x="1480" y="60" as="targetPoint"/>
                    </mxGeometry>
                </mxCell>
                <mxCell id="98" value="Заполнение описания задачи и выбор её типа в форме" style="points=[[0.25,0,0],[0.5,0,0],[0.75,0,0],[1,0.25,0],[1,0.5,0],[1,0.75,0],[0.75,1,0],[0.5,1,0],[0.25,1,0],[0,0.75,0],[0,0.5,0],[0,0.25,0]];shape=mxgraph.bpmn.task;whiteSpace=wrap;rectStyle=rounded;size=10;html=1;taskMarker=user;strokeColor=default;" parent="5" vertex="1">
                    <mxGeometry x="150" y="20" width="120" height="80" as="geometry"/>
                </mxCell>
                <mxCell id="16" value="Расчёт примерной стоимости услуги" style="points=[[0.25,0,0],[0.5,0,0],[0.75,0,0],[1,0.25,0],[1,0.5,0],[1,0.75,0],[0.75,1,0],[0.5,1,0],[0.25,1,0],[0,0.75,0],[0,0.5,0],[0,0.25,0]];shape=mxgraph.bpmn.task;whiteSpace=wrap;rectStyle=rounded;size=10;html=1;taskMarker=abstract;" parent="5" vertex="1">
                    <mxGeometry x="310" y="20" width="120" height="80" as="geometry"/>
                </mxCell>
                <mxCell id="23" value="" style="edgeStyle=orthogonalEdgeStyle;rounded=0;html=1;entryX=0;entryY=0.5;entryDx=0;entryDy=0;entryPerimeter=0;" parent="5" source="16" target="22" edge="1">
                    <mxGeometry relative="1" as="geometry"/>
                </mxCell>
                <mxCell id="74" value="Расчёт финальной стоимости услуги" style="points=[[0.25,0,0],[0.5,0,0],[0.75,0,0],[1,0.25,0],[1,0.5,0],[1,0.75,0],[0.75,1,0],[0.5,1,0],[0.25,1,0],[0,0.75,0],[0,0.5,0],[0,0.25,0]];shape=mxgraph.bpmn.task;whiteSpace=wrap;rectStyle=rounded;size=10;html=1;taskMarker=abstract;" parent="5" vertex="1">
                    <mxGeometry x="620" y="20" width="120" height="80" as="geometry"/>
                </mxCell>
                <mxCell id="128" value="Изменение статуса задачи (на выполнено)" style="points=[[0.25,0,0],[0.5,0,0],[0.75,0,0],[1,0.25,0],[1,0.5,0],[1,0.75,0],[0.75,1,0],[0.5,1,0],[0.25,1,0],[0,0.75,0],[0,0.5,0],[0,0.25,0]];shape=mxgraph.bpmn.task;whiteSpace=wrap;rectStyle=rounded;size=10;html=1;taskMarker=user;strokeColor=default;" parent="5" vertex="1">
                    <mxGeometry x="1320" y="20" width="120" height="80" as="geometry"/>
                </mxCell>
                <mxCell id="131" value="Подписание отчёта о выполненных работах" style="points=[[0.25,0,0],[0.5,0,0],[0.75,0,0],[1,0.25,0],[1,0.5,0],[1,0.75,0],[0.75,1,0],[0.5,1,0],[0.25,1,0],[0,0.75,0],[0,0.5,0],[0,0.25,0]];shape=mxgraph.bpmn.task;whiteSpace=wrap;rectStyle=rounded;size=10;html=1;taskMarker=manual;strokeColor=default;" parent="5" vertex="1">
                    <mxGeometry x="1481" y="20" width="120" height="80" as="geometry"/>
                </mxCell>
                <mxCell id="72" value="" style="points=[[0.145,0.145,0],[0.5,0,0],[0.855,0.145,0],[1,0.5,0],[0.855,0.855,0],[0.5,1,0],[0.145,0.855,0],[0,0.5,0]];shape=mxgraph.bpmn.event;html=1;verticalLabelPosition=bottom;labelBackgroundColor=#ffffff;verticalAlign=top;align=center;perimeter=ellipsePerimeter;outlineConnect=0;aspect=fixed;outline=end;symbol=terminate2;" parent="5" vertex="1">
                    <mxGeometry x="2140" y="35" width="50" height="50" as="geometry"/>
                </mxCell>
                <mxCell id="134" value="Услуга получена" style="text;html=1;align=center;verticalAlign=middle;resizable=0;points=[];autosize=1;strokeColor=none;fillColor=none;" parent="5" vertex="1">
                    <mxGeometry x="2105" y="5" width="120" height="30" as="geometry"/>
                </mxCell>
                <mxCell id="161" value="" style="points=[[0.145,0.145,0],[0.5,0,0],[0.855,0.145,0],[1,0.5,0],[0.855,0.855,0],[0.5,1,0],[0.145,0.855,0],[0,0.5,0]];shape=mxgraph.bpmn.event;html=1;verticalLabelPosition=bottom;labelBackgroundColor=#ffffff;verticalAlign=top;align=center;perimeter=ellipsePerimeter;outlineConnect=0;aspect=fixed;outline=end;symbol=terminate2;strokeColor=default;" parent="5" vertex="1">
                    <mxGeometry x="1070" y="35" width="50" height="50" as="geometry"/>
                </mxCell>
                <mxCell id="163" value="Заказ провален,&lt;br&gt;нужно завести новый заказ" style="text;html=1;align=center;verticalAlign=middle;resizable=0;points=[];autosize=1;strokeColor=none;fillColor=none;" parent="5" vertex="1">
                    <mxGeometry x="1005" width="180" height="40" as="geometry"/>
                </mxCell>
                <mxCell id="19" style="edgeStyle=orthogonalEdgeStyle;html=1;entryX=0;entryY=0.5;entryDx=0;entryDy=0;entryPerimeter=0;rounded=0;" parent="4" target="16" edge="1">
                    <mxGeometry relative="1" as="geometry">
                        <mxPoint x="290" y="60" as="sourcePoint"/>
                    </mxGeometry>
                </mxCell>
                <mxCell id="24" style="edgeStyle=orthogonalEdgeStyle;rounded=0;html=1;entryX=0.5;entryY=0;entryDx=0;entryDy=0;entryPerimeter=0;" parent="4" source="22" target="17" edge="1">
                    <mxGeometry relative="1" as="geometry"/>
                </mxCell>
                <mxCell id="71" style="edgeStyle=orthogonalEdgeStyle;rounded=0;html=1;entryX=0.5;entryY=0;entryDx=0;entryDy=0;entryPerimeter=0;" parent="4" edge="1">
                    <mxGeometry relative="1" as="geometry">
                        <mxPoint x="1560" y="100" as="sourcePoint"/>
                        <mxPoint x="1560" y="140" as="targetPoint"/>
                    </mxGeometry>
                </mxCell>
                <mxCell id="75" value="" style="edgeStyle=orthogonalEdgeStyle;html=1;entryX=0.5;entryY=1;entryDx=0;entryDy=0;entryPerimeter=0;exitX=1;exitY=0.5;exitDx=0;exitDy=0;exitPerimeter=0;rounded=0;" parent="4" source="17" target="74" edge="1">
                    <mxGeometry relative="1" as="geometry"/>
                </mxCell>
                <mxCell id="76" value="" style="edgeStyle=orthogonalEdgeStyle;html=1;exitX=1;exitY=0.5;exitDx=0;exitDy=0;exitPerimeter=0;entryX=0.5;entryY=0;entryDx=0;entryDy=0;entryPerimeter=0;rounded=0;" parent="4" source="74" target="124" edge="1">
                    <mxGeometry relative="1" as="geometry">
                        <mxPoint x="757" y="100" as="sourcePoint"/>
                        <mxPoint x="813.3333333333333" y="140" as="targetPoint"/>
                    </mxGeometry>
                </mxCell>
                <mxCell id="130" value="" style="edgeStyle=orthogonalEdgeStyle;rounded=0;jumpStyle=gap;html=1;" parent="4" source="127" target="128" edge="1">
                    <mxGeometry relative="1" as="geometry"/>
                </mxCell>
                <mxCell id="51" value="Исполнитель" style="swimlane;html=1;startSize=20;horizontal=0;" parent="4" vertex="1">
                    <mxGeometry x="20" y="120" width="2230" height="120" as="geometry">
                        <mxRectangle x="20" y="120" width="710" height="30" as="alternateBounds"/>
                    </mxGeometry>
                </mxCell>
                <mxCell id="64" value="" style="edgeStyle=orthogonalEdgeStyle;rounded=0;html=1;" parent="51" edge="1">
                    <mxGeometry relative="1" as="geometry">
                        <mxPoint x="1281" y="60" as="sourcePoint"/>
                        <mxPoint x="1321" y="60" as="targetPoint"/>
                    </mxGeometry>
                </mxCell>
                <mxCell id="17" value="Подбор исполнителя" style="points=[[0.25,0,0],[0.5,0,0],[0.75,0,0],[1,0.25,0],[1,0.5,0],[1,0.75,0],[0.75,1,0],[0.5,1,0],[0.25,1,0],[0,0.75,0],[0,0.5,0],[0,0.25,0]];shape=mxgraph.bpmn.task;whiteSpace=wrap;rectStyle=rounded;size=10;html=1;taskMarker=abstract;" parent="51" vertex="1">
                    <mxGeometry x="470" y="20" width="120" height="80" as="geometry"/>
                </mxCell>
                <mxCell id="124" value="Добавление задачи в список активных задач исполнителя" style="points=[[0.25,0,0],[0.5,0,0],[0.75,0,0],[1,0.25,0],[1,0.5,0],[1,0.75,0],[0.75,1,0],[0.5,1,0],[0.25,1,0],[0,0.75,0],[0,0.5,0],[0,0.25,0]];shape=mxgraph.bpmn.task;whiteSpace=wrap;rectStyle=rounded;size=10;html=1;taskMarker=abstract;strokeColor=default;" parent="51" vertex="1">
                    <mxGeometry x="790" y="20" width="120" height="80" as="geometry"/>
                </mxCell>
                <mxCell id="125" value="Отметка о начале заказа (фотография и нажатие кнопки &quot;приступил&quot;)" style="points=[[0.25,0,0],[0.5,0,0],[0.75,0,0],[1,0.25,0],[1,0.5,0],[1,0.75,0],[0.75,1,0],[0.5,1,0],[0.25,1,0],[0,0.75,0],[0,0.5,0],[0,0.25,0]];shape=mxgraph.bpmn.task;whiteSpace=wrap;rectStyle=rounded;size=10;html=1;taskMarker=user;strokeColor=default;" parent="51" vertex="1">
                    <mxGeometry x="1130" y="20" width="151" height="80" as="geometry"/>
                </mxCell>
                <mxCell id="127" value="Выполнение работ" style="points=[[0.25,0,0],[0.5,0,0],[0.75,0,0],[1,0.25,0],[1,0.5,0],[1,0.75,0],[0.75,1,0],[0.5,1,0],[0.25,1,0],[0,0.75,0],[0,0.5,0],[0,0.25,0]];shape=mxgraph.bpmn.task;whiteSpace=wrap;rectStyle=rounded;size=10;html=1;taskMarker=manual;strokeColor=default;" parent="51" vertex="1">
                    <mxGeometry x="1320" y="20" width="120" height="80" as="geometry"/>
                </mxCell>
                <mxCell id="193" value="" style="edgeStyle=orthogonalEdgeStyle;rounded=0;jumpStyle=gap;html=1;" parent="51" source="132" target="192" edge="1">
                    <mxGeometry relative="1" as="geometry"/>
                </mxCell>
                <mxCell id="132" value="Отметка об окончании заказа (фотография подписанного отчёта)" style="points=[[0.25,0,0],[0.5,0,0],[0.75,0,0],[1,0.25,0],[1,0.5,0],[1,0.75,0],[0.75,1,0],[0.5,1,0],[0.25,1,0],[0,0.75,0],[0,0.5,0],[0,0.25,0]];shape=mxgraph.bpmn.task;whiteSpace=wrap;rectStyle=rounded;size=10;html=1;taskMarker=user;strokeColor=default;" parent="51" vertex="1">
                    <mxGeometry x="1481" y="20" width="120" height="80" as="geometry"/>
                </mxCell>
                <mxCell id="157" value="" style="edgeStyle=orthogonalEdgeStyle;fontSize=12;html=1;endArrow=blockThin;endFill=1;startArrow=diamondThin;startFill=0;endSize=6;startSize=10;rounded=0;jumpStyle=gap;entryX=0.5;entryY=1;entryDx=0;entryDy=0;entryPerimeter=0;" parent="51" target="161" edge="1">
                    <mxGeometry width="160" relative="1" as="geometry">
                        <mxPoint x="910" y="39.43" as="sourcePoint"/>
                        <mxPoint x="1070" y="39.43" as="targetPoint"/>
                    </mxGeometry>
                </mxCell>
                <mxCell id="158" value="Исполнитель&lt;br&gt;пришёл на заказ" style="text;html=1;align=center;verticalAlign=middle;resizable=0;points=[];autosize=1;strokeColor=none;fillColor=none;" parent="51" vertex="1">
                    <mxGeometry x="910" width="120" height="40" as="geometry"/>
                </mxCell>
                <mxCell id="159" value="" style="edgeStyle=elbowEdgeStyle;fontSize=12;html=1;endArrow=blockThin;endFill=1;startArrow=diamondThin;startFill=0;endSize=6;startSize=10;rounded=0;jumpStyle=gap;entryX=0;entryY=0.75;entryDx=0;entryDy=0;entryPerimeter=0;" parent="51" target="125" edge="1">
                    <mxGeometry width="160" relative="1" as="geometry">
                        <mxPoint x="910" y="80" as="sourcePoint"/>
                        <mxPoint x="1070" y="80" as="targetPoint"/>
                    </mxGeometry>
                </mxCell>
                <mxCell id="160" value="Исполнитель&lt;br&gt;не пришёл на заказ" style="text;html=1;align=center;verticalAlign=middle;resizable=0;points=[];autosize=1;strokeColor=none;fillColor=none;" parent="51" vertex="1">
                    <mxGeometry x="900" y="40" width="140" height="40" as="geometry"/>
                </mxCell>
                <mxCell id="197" value="" style="edgeStyle=orthogonalEdgeStyle;rounded=0;jumpStyle=gap;html=1;entryX=0;entryY=0.5;entryDx=0;entryDy=0;entryPerimeter=0;" parent="51" source="192" target="208" edge="1">
                    <mxGeometry relative="1" as="geometry">
                        <mxPoint x="2130" y="60" as="targetPoint"/>
                    </mxGeometry>
                </mxCell>
                <mxCell id="192" value="" style="points=[[0.25,0.25,0],[0.5,0,0],[0.75,0.25,0],[1,0.5,0],[0.75,0.75,0],[0.5,1,0],[0.25,0.75,0],[0,0.5,0]];shape=mxgraph.bpmn.gateway2;html=1;verticalLabelPosition=bottom;labelBackgroundColor=#ffffff;verticalAlign=top;align=center;perimeter=rhombusPerimeter;outlineConnect=0;outline=none;symbol=none;gwType=exclusive;strokeColor=default;" parent="51" vertex="1">
                    <mxGeometry x="1640" y="35" width="50" height="50" as="geometry"/>
                </mxCell>
                <mxCell id="208" value="" style="points=[[0.25,0.25,0],[0.5,0,0],[0.75,0.25,0],[1,0.5,0],[0.75,0.75,0],[0.5,1,0],[0.25,0.75,0],[0,0.5,0]];shape=mxgraph.bpmn.gateway2;html=1;verticalLabelPosition=bottom;labelBackgroundColor=#ffffff;verticalAlign=top;align=center;perimeter=rhombusPerimeter;outlineConnect=0;outline=none;symbol=none;gwType=exclusive;strokeColor=default;" parent="51" vertex="1">
                    <mxGeometry x="2140" y="35" width="50" height="50" as="geometry"/>
                </mxCell>
                <mxCell id="191" value="Проверка качества" style="swimlane;html=1;startSize=20;horizontal=0;" parent="4" vertex="1">
                    <mxGeometry x="20" y="240" width="2230" height="160" as="geometry">
                        <mxRectangle x="20" y="120" width="710" height="30" as="alternateBounds"/>
                    </mxGeometry>
                </mxCell>
                <mxCell id="202" value="" style="edgeStyle=orthogonalEdgeStyle;rounded=0;jumpStyle=gap;html=1;" parent="191" source="200" target="194" edge="1">
                    <mxGeometry relative="1" as="geometry"/>
                </mxCell>
                <mxCell id="203" style="edgeStyle=orthogonalEdgeStyle;rounded=0;jumpStyle=gap;html=1;entryX=0.5;entryY=1;entryDx=0;entryDy=0;entryPerimeter=0;" parent="191" source="200" edge="1">
                    <mxGeometry relative="1" as="geometry">
                        <mxPoint x="1950" y="100" as="targetPoint"/>
                        <Array as="points">
                            <mxPoint x="1665" y="110"/>
                            <mxPoint x="1950" y="110"/>
                        </Array>
                    </mxGeometry>
                </mxCell>
                <mxCell id="200" value="" style="points=[[0.25,0.25,0],[0.5,0,0],[0.75,0.25,0],[1,0.5,0],[0.75,0.75,0],[0.5,1,0],[0.25,0.75,0],[0,0.5,0]];shape=mxgraph.bpmn.gateway2;html=1;verticalLabelPosition=bottom;labelBackgroundColor=#ffffff;verticalAlign=top;align=center;perimeter=rhombusPerimeter;outlineConnect=0;outline=end;symbol=general;strokeColor=default;" parent="191" vertex="1">
                    <mxGeometry x="1640" y="35" width="50" height="50" as="geometry"/>
                </mxCell>
                <mxCell id="207" style="edgeStyle=orthogonalEdgeStyle;rounded=0;jumpStyle=gap;html=1;entryX=0.5;entryY=0;entryDx=0;entryDy=0;entryPerimeter=0;exitX=0.5;exitY=0;exitDx=0;exitDy=0;exitPerimeter=0;" parent="191" source="194" target="205" edge="1">
                    <mxGeometry relative="1" as="geometry"/>
                </mxCell>
                <mxCell id="194" value="Проверка качества выполненной работы" style="points=[[0.25,0,0],[0.5,0,0],[0.75,0,0],[1,0.25,0],[1,0.5,0],[1,0.75,0],[0.75,1,0],[0.5,1,0],[0.25,1,0],[0,0.75,0],[0,0.5,0],[0,0.25,0]];shape=mxgraph.bpmn.task;whiteSpace=wrap;rectStyle=rounded;size=10;html=1;taskMarker=user;strokeColor=default;" parent="191" vertex="1">
                    <mxGeometry x="1730" y="20" width="120" height="80" as="geometry"/>
                </mxCell>
                <mxCell id="206" value="" style="edgeStyle=orthogonalEdgeStyle;rounded=0;jumpStyle=gap;html=1;" parent="191" source="204" target="205" edge="1">
                    <mxGeometry relative="1" as="geometry"/>
                </mxCell>
                <mxCell id="204" value="Звонок клиенту" style="points=[[0.25,0,0],[0.5,0,0],[0.75,0,0],[1,0.25,0],[1,0.5,0],[1,0.75,0],[0.75,1,0],[0.5,1,0],[0.25,1,0],[0,0.75,0],[0,0.5,0],[0,0.25,0]];shape=mxgraph.bpmn.task;whiteSpace=wrap;rectStyle=rounded;size=10;html=1;taskMarker=manual;strokeColor=default;" parent="191" vertex="1">
                    <mxGeometry x="1890" y="20" width="120" height="80" as="geometry"/>
                </mxCell>
                <mxCell id="205" value="" style="points=[[0.25,0.25,0],[0.5,0,0],[0.75,0.25,0],[1,0.5,0],[0.75,0.75,0],[0.5,1,0],[0.25,0.75,0],[0,0.5,0]];shape=mxgraph.bpmn.gateway2;html=1;verticalLabelPosition=bottom;labelBackgroundColor=#ffffff;verticalAlign=top;align=center;perimeter=rhombusPerimeter;outlineConnect=0;outline=end;symbol=general;strokeColor=default;" parent="191" vertex="1">
                    <mxGeometry x="2050" y="35" width="50" height="50" as="geometry"/>
                </mxCell>
                <mxCell id="201" value="" style="edgeStyle=orthogonalEdgeStyle;rounded=0;jumpStyle=gap;html=1;" parent="4" source="192" target="200" edge="1">
                    <mxGeometry relative="1" as="geometry"/>
                </mxCell>
                <mxCell id="209" style="edgeStyle=orthogonalEdgeStyle;rounded=0;jumpStyle=gap;html=1;" parent="4" source="205" target="208" edge="1">
                    <mxGeometry relative="1" as="geometry"/>
                </mxCell>
                <mxCell id="210" style="edgeStyle=orthogonalEdgeStyle;rounded=0;jumpStyle=gap;html=1;entryX=0.5;entryY=1;entryDx=0;entryDy=0;entryPerimeter=0;" parent="4" source="208" target="72" edge="1">
                    <mxGeometry relative="1" as="geometry"/>
                </mxCell>
                <mxCell id="45" value="Устройство в штат" style="swimlane;html=1;childLayout=stackLayout;resizeParent=1;resizeParentMax=0;horizontal=0;startSize=20;horizontalStack=0;whiteSpace=wrap;" parent="1" vertex="1">
                    <mxGeometry x="40" y="521" width="900" height="240" as="geometry"/>
                </mxCell>
                <mxCell id="46" value="Соискатель" style="swimlane;html=1;startSize=20;horizontal=0;" parent="45" vertex="1">
                    <mxGeometry x="20" width="880" height="120" as="geometry"/>
                </mxCell>
                <mxCell id="78" value="Оставление заявки&lt;br&gt;на сайте" style="text;html=1;align=center;verticalAlign=middle;resizable=0;points=[];autosize=1;strokeColor=none;fillColor=none;" parent="46" vertex="1">
                    <mxGeometry x="20" width="130" height="40" as="geometry"/>
                </mxCell>
                <mxCell id="135" value="" style="points=[[0.145,0.145,0],[0.5,0,0],[0.855,0.145,0],[1,0.5,0],[0.855,0.855,0],[0.5,1,0],[0.145,0.855,0],[0,0.5,0]];shape=mxgraph.bpmn.event;html=1;verticalLabelPosition=bottom;labelBackgroundColor=#ffffff;verticalAlign=top;align=center;perimeter=ellipsePerimeter;outlineConnect=0;aspect=fixed;outline=standard;symbol=general;strokeColor=default;" parent="46" vertex="1">
                    <mxGeometry x="60" y="40" width="50" height="50" as="geometry"/>
                </mxCell>
                <mxCell id="94" value="Выполнение тестов" style="points=[[0.25,0,0],[0.5,0,0],[0.75,0,0],[1,0.25,0],[1,0.5,0],[1,0.75,0],[0.75,1,0],[0.5,1,0],[0.25,1,0],[0,0.75,0],[0,0.5,0],[0,0.25,0]];shape=mxgraph.bpmn.task;whiteSpace=wrap;rectStyle=rounded;size=10;html=1;taskMarker=user;strokeColor=default;" parent="46" vertex="1">
                    <mxGeometry x="150" y="25" width="120" height="80" as="geometry"/>
                </mxCell>
                <mxCell id="145" value="" style="points=[[0.145,0.145,0],[0.5,0,0],[0.855,0.145,0],[1,0.5,0],[0.855,0.855,0],[0.5,1,0],[0.145,0.855,0],[0,0.5,0]];shape=mxgraph.bpmn.event;html=1;verticalLabelPosition=bottom;labelBackgroundColor=#ffffff;verticalAlign=top;align=center;perimeter=ellipsePerimeter;outlineConnect=0;aspect=fixed;outline=end;symbol=terminate2;strokeColor=default;" parent="46" vertex="1">
                    <mxGeometry x="540" y="35" width="50" height="50" as="geometry"/>
                </mxCell>
                <mxCell id="146" value="Соискатель&lt;br&gt;отбракован" style="text;html=1;align=center;verticalAlign=middle;resizable=0;points=[];autosize=1;strokeColor=none;fillColor=none;" parent="46" vertex="1">
                    <mxGeometry x="520" width="90" height="40" as="geometry"/>
                </mxCell>
                <mxCell id="149" value="" style="edgeStyle=orthogonalEdgeStyle;rounded=0;jumpStyle=gap;html=1;" parent="46" source="147" target="148" edge="1">
                    <mxGeometry relative="1" as="geometry"/>
                </mxCell>
                <mxCell id="147" value="Соискатель добавлен в общий пул исполнителей" style="points=[[0.25,0,0],[0.5,0,0],[0.75,0,0],[1,0.25,0],[1,0.5,0],[1,0.75,0],[0.75,1,0],[0.5,1,0],[0.25,1,0],[0,0.75,0],[0,0.5,0],[0,0.25,0]];shape=mxgraph.bpmn.task;whiteSpace=wrap;rectStyle=rounded;size=10;html=1;taskMarker=abstract;strokeColor=default;" parent="46" vertex="1">
                    <mxGeometry x="630" y="20" width="120" height="80" as="geometry"/>
                </mxCell>
                <mxCell id="148" value="" style="points=[[0.145,0.145,0],[0.5,0,0],[0.855,0.145,0],[1,0.5,0],[0.855,0.855,0],[0.5,1,0],[0.145,0.855,0],[0,0.5,0]];shape=mxgraph.bpmn.event;html=1;verticalLabelPosition=bottom;labelBackgroundColor=#ffffff;verticalAlign=top;align=center;perimeter=ellipsePerimeter;outlineConnect=0;aspect=fixed;outline=end;symbol=terminate2;strokeColor=default;" parent="46" vertex="1">
                    <mxGeometry x="790" y="35" width="50" height="50" as="geometry"/>
                </mxCell>
                <mxCell id="150" value="Соискатель становится&lt;br&gt;исполнителем" style="text;html=1;align=center;verticalAlign=middle;resizable=0;points=[];autosize=1;strokeColor=none;fillColor=none;" parent="46" vertex="1">
                    <mxGeometry x="735" width="160" height="40" as="geometry"/>
                </mxCell>
                <mxCell id="47" value="Менеджер" style="swimlane;html=1;startSize=20;horizontal=0;" parent="45" vertex="1">
                    <mxGeometry x="20" y="120" width="880" height="120" as="geometry"/>
                </mxCell>
                <mxCell id="93" value="Выбор тестов&lt;br style=&quot;border-color: var(--border-color);&quot;&gt;для кандидата" style="points=[[0.25,0,0],[0.5,0,0],[0.75,0,0],[1,0.25,0],[1,0.5,0],[1,0.75,0],[0.75,1,0],[0.5,1,0],[0.25,1,0],[0,0.75,0],[0,0.5,0],[0,0.25,0]];shape=mxgraph.bpmn.task;whiteSpace=wrap;rectStyle=rounded;size=10;html=1;taskMarker=user;strokeColor=default;" parent="47" vertex="1">
                    <mxGeometry x="150" y="20" width="120" height="80" as="geometry"/>
                </mxCell>
                <mxCell id="95" value="Проверка результата" style="points=[[0.25,0,0],[0.5,0,0],[0.75,0,0],[1,0.25,0],[1,0.5,0],[1,0.75,0],[0.75,1,0],[0.5,1,0],[0.25,1,0],[0,0.75,0],[0,0.5,0],[0,0.25,0]];shape=mxgraph.bpmn.task;whiteSpace=wrap;rectStyle=rounded;size=10;html=1;taskMarker=user;strokeColor=default;" parent="47" vertex="1">
                    <mxGeometry x="310" y="20" width="120" height="80" as="geometry"/>
                </mxCell>
                <mxCell id="141" value="" style="edgeStyle=elbowEdgeStyle;fontSize=12;html=1;endArrow=blockThin;endFill=1;startArrow=diamondThin;startFill=0;endSize=6;startSize=10;rounded=0;jumpStyle=gap;entryX=0.5;entryY=1;entryDx=0;entryDy=0;entryPerimeter=0;" parent="47" target="145" edge="1">
                    <mxGeometry width="160" relative="1" as="geometry">
                        <mxPoint x="430" y="40" as="sourcePoint"/>
                        <mxPoint x="590" y="40" as="targetPoint"/>
                        <Array as="points">
                            <mxPoint x="565" y="10"/>
                        </Array>
                    </mxGeometry>
                </mxCell>
                <mxCell id="142" value="Тест провален" style="text;html=1;align=center;verticalAlign=middle;resizable=0;points=[];autosize=1;strokeColor=none;fillColor=none;" parent="47" vertex="1">
                    <mxGeometry x="430" y="10" width="110" height="30" as="geometry"/>
                </mxCell>
                <mxCell id="143" value="" style="edgeStyle=elbowEdgeStyle;fontSize=12;html=1;endArrow=blockThin;endFill=1;startArrow=diamondThin;startFill=0;endSize=6;startSize=10;rounded=0;jumpStyle=gap;entryX=0.5;entryY=1;entryDx=0;entryDy=0;entryPerimeter=0;" parent="47" target="147" edge="1">
                    <mxGeometry width="160" relative="1" as="geometry">
                        <mxPoint x="430" y="80" as="sourcePoint"/>
                        <mxPoint x="590" y="80" as="targetPoint"/>
                        <Array as="points">
                            <mxPoint x="690" y="30"/>
                        </Array>
                    </mxGeometry>
                </mxCell>
                <mxCell id="144" value="Тест пройден" style="text;html=1;align=center;verticalAlign=middle;resizable=0;points=[];autosize=1;strokeColor=none;fillColor=none;" parent="47" vertex="1">
                    <mxGeometry x="435" y="50" width="100" height="30" as="geometry"/>
                </mxCell>
                <mxCell id="137" style="edgeStyle=orthogonalEdgeStyle;rounded=0;jumpStyle=gap;html=1;entryX=0;entryY=0.5;entryDx=0;entryDy=0;entryPerimeter=0;" parent="45" source="135" target="93" edge="1">
                    <mxGeometry relative="1" as="geometry"/>
                </mxCell>
                <mxCell id="138" value="" style="edgeStyle=orthogonalEdgeStyle;rounded=0;jumpStyle=gap;html=1;" parent="45" source="93" target="94" edge="1">
                    <mxGeometry relative="1" as="geometry"/>
                </mxCell>
                <mxCell id="155" style="edgeStyle=orthogonalEdgeStyle;rounded=0;jumpStyle=gap;html=1;entryX=0;entryY=0.5;entryDx=0;entryDy=0;entryPerimeter=0;" parent="45" source="94" target="95" edge="1">
                    <mxGeometry relative="1" as="geometry"/>
                </mxCell>
                <mxCell id="151" value="Выдача расходников" style="swimlane;html=1;childLayout=stackLayout;resizeParent=1;resizeParentMax=0;horizontal=0;startSize=20;horizontalStack=0;whiteSpace=wrap;strokeColor=default;" parent="1" vertex="1">
                    <mxGeometry x="40" y="841" width="820" height="280" as="geometry"/>
                </mxCell>
                <mxCell id="152" value="Исполнитель" style="swimlane;html=1;startSize=20;horizontal=0;strokeColor=default;" parent="151" vertex="1">
                    <mxGeometry x="20" width="800" height="120" as="geometry"/>
                </mxCell>
                <mxCell id="164" value="" style="points=[[0.145,0.145,0],[0.5,0,0],[0.855,0.145,0],[1,0.5,0],[0.855,0.855,0],[0.5,1,0],[0.145,0.855,0],[0,0.5,0]];shape=mxgraph.bpmn.event;html=1;verticalLabelPosition=bottom;labelBackgroundColor=#ffffff;verticalAlign=top;align=center;perimeter=ellipsePerimeter;outlineConnect=0;aspect=fixed;outline=standard;symbol=general;strokeColor=default;" parent="152" vertex="1">
                    <mxGeometry x="60" y="35" width="50" height="50" as="geometry"/>
                </mxCell>
                <mxCell id="165" value="Получение&lt;br&gt;исполнителем заказа" style="text;html=1;align=center;verticalAlign=middle;resizable=0;points=[];autosize=1;strokeColor=none;fillColor=none;" parent="152" vertex="1">
                    <mxGeometry x="10" width="150" height="40" as="geometry"/>
                </mxCell>
                <mxCell id="172" value="Получение расходников исполнителем" style="points=[[0.25,0,0],[0.5,0,0],[0.75,0,0],[1,0.25,0],[1,0.5,0],[1,0.75,0],[0.75,1,0],[0.5,1,0],[0.25,1,0],[0,0.75,0],[0,0.5,0],[0,0.25,0]];shape=mxgraph.bpmn.task;whiteSpace=wrap;rectStyle=rounded;size=10;html=1;taskMarker=manual;strokeColor=default;" parent="152" vertex="1">
                    <mxGeometry x="390" y="20" width="120" height="80" as="geometry"/>
                </mxCell>
                <mxCell id="171" style="edgeStyle=orthogonalEdgeStyle;rounded=0;jumpStyle=gap;html=1;entryX=0.5;entryY=0;entryDx=0;entryDy=0;entryPerimeter=0;" parent="151" source="164" target="166" edge="1">
                    <mxGeometry relative="1" as="geometry"/>
                </mxCell>
                <mxCell id="173" value="" style="edgeStyle=orthogonalEdgeStyle;rounded=0;jumpStyle=gap;html=1;" parent="151" source="169" target="172" edge="1">
                    <mxGeometry relative="1" as="geometry"/>
                </mxCell>
                <mxCell id="175" style="edgeStyle=orthogonalEdgeStyle;rounded=0;jumpStyle=gap;html=1;entryX=0;entryY=0.5;entryDx=0;entryDy=0;entryPerimeter=0;" parent="151" source="172" target="174" edge="1">
                    <mxGeometry relative="1" as="geometry"/>
                </mxCell>
                <mxCell id="153" value="Отдел расходников" style="swimlane;html=1;startSize=20;horizontal=0;strokeColor=default;" parent="151" vertex="1">
                    <mxGeometry x="20" y="120" width="800" height="160" as="geometry">
                        <mxRectangle x="20" y="120" width="1010" height="30" as="alternateBounds"/>
                    </mxGeometry>
                </mxCell>
                <mxCell id="183" value="" style="edgeStyle=orthogonalEdgeStyle;rounded=0;jumpStyle=gap;html=1;" parent="153" source="166" edge="1">
                    <mxGeometry relative="1" as="geometry">
                        <mxPoint x="190" y="80" as="targetPoint"/>
                    </mxGeometry>
                </mxCell>
                <mxCell id="166" value="Создание заявки на расходники для заказа" style="points=[[0.25,0,0],[0.5,0,0],[0.75,0,0],[1,0.25,0],[1,0.5,0],[1,0.75,0],[0.75,1,0],[0.5,1,0],[0.25,1,0],[0,0.75,0],[0,0.5,0],[0,0.25,0]];shape=mxgraph.bpmn.task;whiteSpace=wrap;rectStyle=rounded;size=10;html=1;taskMarker=abstract;strokeColor=default;" parent="153" vertex="1">
                    <mxGeometry x="25" y="40" width="120" height="80" as="geometry"/>
                </mxCell>
                <mxCell id="169" value="Сбор расходников" style="points=[[0.25,0,0],[0.5,0,0],[0.75,0,0],[1,0.25,0],[1,0.5,0],[1,0.75,0],[0.75,1,0],[0.5,1,0],[0.25,1,0],[0,0.75,0],[0,0.5,0],[0,0.25,0]];shape=mxgraph.bpmn.task;whiteSpace=wrap;rectStyle=rounded;size=10;html=1;taskMarker=manual;strokeColor=default;" parent="153" vertex="1">
                    <mxGeometry x="390" y="40" width="120" height="80" as="geometry"/>
                </mxCell>
                <mxCell id="178" value="" style="edgeStyle=orthogonalEdgeStyle;rounded=0;jumpStyle=gap;html=1;" parent="153" source="174" target="177" edge="1">
                    <mxGeometry relative="1" as="geometry"/>
                </mxCell>
                <mxCell id="174" value="Перевод статуса выдачи в состояние &quot;выполнено&quot;" style="points=[[0.25,0,0],[0.5,0,0],[0.75,0,0],[1,0.25,0],[1,0.5,0],[1,0.75,0],[0.75,1,0],[0.5,1,0],[0.25,1,0],[0,0.75,0],[0,0.5,0],[0,0.25,0]];shape=mxgraph.bpmn.task;whiteSpace=wrap;rectStyle=rounded;size=10;html=1;taskMarker=user;strokeColor=default;" parent="153" vertex="1">
                    <mxGeometry x="550" y="40" width="120" height="80" as="geometry"/>
                </mxCell>
                <mxCell id="177" value="" style="points=[[0.145,0.145,0],[0.5,0,0],[0.855,0.145,0],[1,0.5,0],[0.855,0.855,0],[0.5,1,0],[0.145,0.855,0],[0,0.5,0]];shape=mxgraph.bpmn.event;html=1;verticalLabelPosition=bottom;labelBackgroundColor=#ffffff;verticalAlign=top;align=center;perimeter=ellipsePerimeter;outlineConnect=0;aspect=fixed;outline=end;symbol=terminate2;strokeColor=default;" parent="153" vertex="1">
                    <mxGeometry x="710" y="55" width="50" height="50" as="geometry"/>
                </mxCell>
                <mxCell id="179" value="Расходники&lt;br&gt;выданы" style="text;html=1;align=center;verticalAlign=middle;resizable=0;points=[];autosize=1;strokeColor=none;fillColor=none;" parent="153" vertex="1">
                    <mxGeometry x="690" y="105" width="90" height="40" as="geometry"/>
                </mxCell>
                <mxCell id="184" value="Передача&lt;br&gt;информации о заказе&lt;br&gt;подрядчику" style="text;html=1;align=center;verticalAlign=middle;resizable=0;points=[];autosize=1;strokeColor=none;fillColor=none;" parent="153" vertex="1">
                    <mxGeometry x="140" y="-5" width="150" height="60" as="geometry"/>
                </mxCell>
                <mxCell id="186" value="" style="points=[[0.145,0.145,0],[0.5,0,0],[0.855,0.145,0],[1,0.5,0],[0.855,0.855,0],[0.5,1,0],[0.145,0.855,0],[0,0.5,0]];shape=mxgraph.bpmn.event;html=1;verticalLabelPosition=bottom;labelBackgroundColor=#ffffff;verticalAlign=top;align=center;perimeter=ellipsePerimeter;outlineConnect=0;aspect=fixed;outline=throwing;symbol=message;strokeColor=default;" parent="153" vertex="1">
                    <mxGeometry x="190" y="55" width="50" height="50" as="geometry"/>
                </mxCell>
                <mxCell id="190" value="" style="edgeStyle=orthogonalEdgeStyle;rounded=0;jumpStyle=gap;html=1;" parent="153" source="187" target="169" edge="1">
                    <mxGeometry relative="1" as="geometry"/>
                </mxCell>
                <mxCell id="187" value="" style="points=[[0.145,0.145,0],[0.5,0,0],[0.855,0.145,0],[1,0.5,0],[0.855,0.855,0],[0.5,1,0],[0.145,0.855,0],[0,0.5,0]];shape=mxgraph.bpmn.event;html=1;verticalLabelPosition=bottom;labelBackgroundColor=#ffffff;verticalAlign=top;align=center;perimeter=ellipsePerimeter;outlineConnect=0;aspect=fixed;outline=catching;symbol=message;strokeColor=default;" parent="153" vertex="1">
                    <mxGeometry x="300" y="55" width="50" height="50" as="geometry"/>
                </mxCell>
                <mxCell id="189" value="Получение&lt;br&gt;печенья&amp;nbsp;" style="text;html=1;align=center;verticalAlign=middle;resizable=0;points=[];autosize=1;strokeColor=none;fillColor=none;" parent="153" vertex="1">
                    <mxGeometry x="280" y="5" width="90" height="40" as="geometry"/>
                </mxCell>
                <mxCell id="185" value="" style="dashed=1;dashPattern=8 4;endArrow=blockThin;endFill=1;startArrow=oval;startFill=0;endSize=6;startSize=4;html=1;rounded=0;jumpStyle=gap;exitX=0.5;exitY=1;exitDx=0;exitDy=0;exitPerimeter=0;" parent="1" edge="1">
                    <mxGeometry width="160" relative="1" as="geometry">
                        <mxPoint x="275" y="1066" as="sourcePoint"/>
                        <mxPoint x="275" y="1161" as="targetPoint"/>
                    </mxGeometry>
                </mxCell>
                <mxCell id="188" value="" style="dashed=1;dashPattern=8 4;endArrow=blockThin;endFill=1;startArrow=oval;startFill=0;endSize=6;startSize=4;html=1;rounded=0;jumpStyle=gap;entryX=0.5;entryY=1;entryDx=0;entryDy=0;entryPerimeter=0;" parent="1" target="187" edge="1">
                    <mxGeometry width="160" relative="1" as="geometry">
                        <mxPoint x="385" y="1161" as="sourcePoint"/>
                        <mxPoint x="610" y="1128.5" as="targetPoint"/>
                    </mxGeometry>
                </mxCell>
                <mxCell id="211" value="Изучение качества работы" style="swimlane;html=1;childLayout=stackLayout;resizeParent=1;resizeParentMax=0;horizontal=0;startSize=20;horizontalStack=0;whiteSpace=wrap;strokeColor=default;" parent="1" vertex="1">
                    <mxGeometry x="40" y="1281" width="920" height="240" as="geometry"/>
                </mxCell>
                <mxCell id="212" value="Отдел проверки качества" style="swimlane;html=1;startSize=20;horizontal=0;strokeColor=default;" parent="211" vertex="1">
                    <mxGeometry x="20" width="900" height="240" as="geometry"/>
                </mxCell>
                <mxCell id="232" value="" style="edgeStyle=orthogonalEdgeStyle;rounded=0;jumpStyle=gap;html=1;" parent="212" source="219" target="222" edge="1">
                    <mxGeometry relative="1" as="geometry"/>
                </mxCell>
                <mxCell id="219" value="" style="points=[[0.145,0.145,0],[0.5,0,0],[0.855,0.145,0],[1,0.5,0],[0.855,0.855,0],[0.5,1,0],[0.145,0.855,0],[0,0.5,0]];shape=mxgraph.bpmn.event;html=1;verticalLabelPosition=bottom;labelBackgroundColor=#ffffff;verticalAlign=top;align=center;perimeter=ellipsePerimeter;outlineConnect=0;aspect=fixed;outline=standard;symbol=general;strokeColor=default;" parent="212" vertex="1">
                    <mxGeometry x="60" y="95" width="50" height="50" as="geometry"/>
                </mxCell>
                <mxCell id="220" value="Заказ был провален" style="text;html=1;align=center;verticalAlign=middle;resizable=0;points=[];autosize=1;strokeColor=none;fillColor=none;" parent="212" vertex="1">
                    <mxGeometry x="15" y="145" width="140" height="30" as="geometry"/>
                </mxCell>
                <mxCell id="224" value="" style="edgeStyle=orthogonalEdgeStyle;rounded=0;jumpStyle=gap;html=1;" parent="212" source="222" target="223" edge="1">
                    <mxGeometry relative="1" as="geometry"/>
                </mxCell>
                <mxCell id="222" value="Проведение проверки заказа" style="points=[[0.25,0,0],[0.5,0,0],[0.75,0,0],[1,0.25,0],[1,0.5,0],[1,0.75,0],[0.75,1,0],[0.5,1,0],[0.25,1,0],[0,0.75,0],[0,0.5,0],[0,0.25,0]];shape=mxgraph.bpmn.task;whiteSpace=wrap;rectStyle=rounded;size=10;html=1;taskMarker=user;strokeColor=default;" parent="212" vertex="1">
                    <mxGeometry x="155" y="80" width="120" height="80" as="geometry"/>
                </mxCell>
                <mxCell id="226" value="" style="edgeStyle=orthogonalEdgeStyle;rounded=0;jumpStyle=gap;html=1;" parent="212" source="223" target="225" edge="1">
                    <mxGeometry relative="1" as="geometry"/>
                </mxCell>
                <mxCell id="229" style="edgeStyle=orthogonalEdgeStyle;rounded=0;jumpStyle=gap;html=1;" parent="212" source="223" target="227" edge="1">
                    <mxGeometry relative="1" as="geometry">
                        <Array as="points">
                            <mxPoint x="335" y="200"/>
                            <mxPoint x="585" y="200"/>
                        </Array>
                    </mxGeometry>
                </mxCell>
                <mxCell id="223" value="" style="points=[[0.25,0.25,0],[0.5,0,0],[0.75,0.25,0],[1,0.5,0],[0.75,0.75,0],[0.5,1,0],[0.25,0.75,0],[0,0.5,0]];shape=mxgraph.bpmn.gateway2;html=1;verticalLabelPosition=bottom;labelBackgroundColor=#ffffff;verticalAlign=top;align=center;perimeter=rhombusPerimeter;outlineConnect=0;outline=none;symbol=none;gwType=exclusive;strokeColor=default;" parent="212" vertex="1">
                    <mxGeometry x="310" y="95" width="50" height="50" as="geometry"/>
                </mxCell>
                <mxCell id="228" value="" style="edgeStyle=orthogonalEdgeStyle;rounded=0;jumpStyle=gap;html=1;" parent="212" source="225" target="227" edge="1">
                    <mxGeometry relative="1" as="geometry"/>
                </mxCell>
                <mxCell id="225" value="Звонок клиенту" style="points=[[0.25,0,0],[0.5,0,0],[0.75,0,0],[1,0.25,0],[1,0.5,0],[1,0.75,0],[0.75,1,0],[0.5,1,0],[0.25,1,0],[0,0.75,0],[0,0.5,0],[0,0.25,0]];shape=mxgraph.bpmn.task;whiteSpace=wrap;rectStyle=rounded;size=10;html=1;taskMarker=manual;strokeColor=default;" parent="212" vertex="1">
                    <mxGeometry x="400" y="80" width="120" height="80" as="geometry"/>
                </mxCell>
                <mxCell id="231" value="" style="edgeStyle=orthogonalEdgeStyle;rounded=0;jumpStyle=gap;html=1;" parent="212" source="227" target="230" edge="1">
                    <mxGeometry relative="1" as="geometry"/>
                </mxCell>
                <mxCell id="227" value="" style="points=[[0.25,0.25,0],[0.5,0,0],[0.75,0.25,0],[1,0.5,0],[0.75,0.75,0],[0.5,1,0],[0.25,0.75,0],[0,0.5,0]];shape=mxgraph.bpmn.gateway2;html=1;verticalLabelPosition=bottom;labelBackgroundColor=#ffffff;verticalAlign=top;align=center;perimeter=rhombusPerimeter;outlineConnect=0;outline=none;symbol=none;gwType=exclusive;strokeColor=default;" parent="212" vertex="1">
                    <mxGeometry x="560" y="95" width="50" height="50" as="geometry"/>
                </mxCell>
                <mxCell id="234" value="" style="edgeStyle=orthogonalEdgeStyle;rounded=0;jumpStyle=gap;html=1;" parent="212" source="230" target="233" edge="1">
                    <mxGeometry relative="1" as="geometry"/>
                </mxCell>
                <mxCell id="230" value="Заполнение формы с результатом проверки качества" style="points=[[0.25,0,0],[0.5,0,0],[0.75,0,0],[1,0.25,0],[1,0.5,0],[1,0.75,0],[0.75,1,0],[0.5,1,0],[0.25,1,0],[0,0.75,0],[0,0.5,0],[0,0.25,0]];shape=mxgraph.bpmn.task;whiteSpace=wrap;rectStyle=rounded;size=10;html=1;taskMarker=user;strokeColor=default;" parent="212" vertex="1">
                    <mxGeometry x="650" y="80" width="120" height="80" as="geometry"/>
                </mxCell>
                <mxCell id="233" value="" style="points=[[0.145,0.145,0],[0.5,0,0],[0.855,0.145,0],[1,0.5,0],[0.855,0.855,0],[0.5,1,0],[0.145,0.855,0],[0,0.5,0]];shape=mxgraph.bpmn.event;html=1;verticalLabelPosition=bottom;labelBackgroundColor=#ffffff;verticalAlign=top;align=center;perimeter=ellipsePerimeter;outlineConnect=0;aspect=fixed;outline=end;symbol=terminate2;strokeColor=default;" parent="212" vertex="1">
                    <mxGeometry x="810" y="95" width="50" height="50" as="geometry"/>
                </mxCell>
                <mxCell id="235" value="Получены гипотезы&lt;br&gt;для улучшения&lt;br&gt;работы бизнеса" style="text;html=1;align=center;verticalAlign=middle;resizable=0;points=[];autosize=1;strokeColor=none;fillColor=none;" parent="212" vertex="1">
                    <mxGeometry x="765" y="145" width="140" height="60" as="geometry"/>
                </mxCell>
                <mxCell id="215" value="Подрядчик" style="swimlane;html=1;childLayout=stackLayout;resizeParent=1;resizeParentMax=0;startSize=20;whiteSpace=wrap;strokeColor=default;" parent="1" vertex="1" collapsed="1">
                    <mxGeometry x="260" y="1161" width="140" height="30" as="geometry">
                        <mxRectangle x="260" y="1120" width="40" height="480" as="alternateBounds"/>
                    </mxGeometry>
                </mxCell>
                <mxCell id="236" value="Списание оплаты у клиентов" style="swimlane;html=1;childLayout=stackLayout;resizeParent=1;resizeParentMax=0;horizontal=0;startSize=20;horizontalStack=0;whiteSpace=wrap;strokeColor=default;" parent="1" vertex="1">
                    <mxGeometry x="40" y="1601" width="760" height="240" as="geometry"/>
                </mxCell>
                <mxCell id="237" value="Клиент" style="swimlane;html=1;startSize=20;horizontal=0;strokeColor=default;" parent="236" vertex="1">
                    <mxGeometry x="20" width="740" height="240" as="geometry"/>
                </mxCell>
                <mxCell id="245" value="" style="edgeStyle=none;html=1;" edge="1" parent="237" source="242" target="244">
                    <mxGeometry relative="1" as="geometry"/>
                </mxCell>
                <mxCell id="242" value="" style="points=[[0.145,0.145,0],[0.5,0,0],[0.855,0.145,0],[1,0.5,0],[0.855,0.855,0],[0.5,1,0],[0.145,0.855,0],[0,0.5,0]];shape=mxgraph.bpmn.event;html=1;verticalLabelPosition=bottom;labelBackgroundColor=#ffffff;verticalAlign=top;align=center;perimeter=ellipsePerimeter;outlineConnect=0;aspect=fixed;outline=standard;symbol=timer;" vertex="1" parent="237">
                    <mxGeometry x="60" y="95" width="50" height="50" as="geometry"/>
                </mxCell>
                <mxCell id="243" value="Воскресенье" style="text;html=1;align=center;verticalAlign=middle;resizable=0;points=[];autosize=1;strokeColor=none;fillColor=none;" vertex="1" parent="237">
                    <mxGeometry x="35" y="145" width="100" height="30" as="geometry"/>
                </mxCell>
                <mxCell id="248" value="" style="edgeStyle=none;html=1;" edge="1" parent="237" source="244" target="247">
                    <mxGeometry relative="1" as="geometry"/>
                </mxCell>
                <mxCell id="244" value="Выставление инвойса" style="points=[[0.25,0,0],[0.5,0,0],[0.75,0,0],[1,0.25,0],[1,0.5,0],[1,0.75,0],[0.75,1,0],[0.5,1,0],[0.25,1,0],[0,0.75,0],[0,0.5,0],[0,0.25,0]];shape=mxgraph.bpmn.task;whiteSpace=wrap;rectStyle=rounded;size=10;html=1;taskMarker=abstract;" vertex="1" parent="237">
                    <mxGeometry x="150" y="80" width="120" height="80" as="geometry"/>
                </mxCell>
                <mxCell id="247" value="" style="points=[[0.145,0.145,0],[0.5,0,0],[0.855,0.145,0],[1,0.5,0],[0.855,0.855,0],[0.5,1,0],[0.145,0.855,0],[0,0.5,0]];shape=mxgraph.bpmn.event;html=1;verticalLabelPosition=bottom;labelBackgroundColor=#ffffff;verticalAlign=top;align=center;perimeter=ellipsePerimeter;outlineConnect=0;aspect=fixed;outline=throwing;symbol=message;" vertex="1" parent="237">
                    <mxGeometry x="310" y="95" width="50" height="50" as="geometry"/>
                </mxCell>
                <mxCell id="249" value="Отправка информации&lt;br&gt;о транзакции" style="text;html=1;align=center;verticalAlign=middle;resizable=0;points=[];autosize=1;strokeColor=none;fillColor=none;" vertex="1" parent="237">
                    <mxGeometry x="260" y="53" width="150" height="40" as="geometry"/>
                </mxCell>
                <mxCell id="250" value="" style="dashed=1;dashPattern=8 4;endArrow=blockThin;endFill=1;startArrow=oval;startFill=0;endSize=6;startSize=4;html=1;rounded=0;jumpStyle=gap;exitX=0.5;exitY=1;exitDx=0;exitDy=0;exitPerimeter=0;entryX=0.171;entryY=0.014;entryDx=0;entryDy=0;entryPerimeter=0;" edge="1" parent="237" target="246">
                    <mxGeometry width="160" relative="1" as="geometry">
                        <mxPoint x="334.5" y="145" as="sourcePoint"/>
                        <mxPoint x="335" y="259" as="targetPoint"/>
                    </mxGeometry>
                </mxCell>
                <mxCell id="255" value="" style="edgeStyle=none;html=1;" edge="1" parent="237" source="252" target="254">
                    <mxGeometry relative="1" as="geometry"/>
                </mxCell>
                <mxCell id="252" value="" style="points=[[0.145,0.145,0],[0.5,0,0],[0.855,0.145,0],[1,0.5,0],[0.855,0.855,0],[0.5,1,0],[0.145,0.855,0],[0,0.5,0]];shape=mxgraph.bpmn.event;html=1;verticalLabelPosition=bottom;labelBackgroundColor=#ffffff;verticalAlign=top;align=center;perimeter=ellipsePerimeter;outlineConnect=0;aspect=fixed;outline=catching;symbol=message;strokeColor=default;" vertex="1" parent="237">
                    <mxGeometry x="400" y="95" width="50" height="50" as="geometry"/>
                </mxCell>
                <mxCell id="253" value="Получение информации&lt;br&gt;о транзакции" style="text;html=1;align=center;verticalAlign=middle;resizable=0;points=[];autosize=1;strokeColor=none;fillColor=none;" vertex="1" parent="237">
                    <mxGeometry x="430" y="149" width="160" height="40" as="geometry"/>
                </mxCell>
                <mxCell id="254" value="" style="points=[[0.145,0.145,0],[0.5,0,0],[0.855,0.145,0],[1,0.5,0],[0.855,0.855,0],[0.5,1,0],[0.145,0.855,0],[0,0.5,0]];shape=mxgraph.bpmn.event;html=1;verticalLabelPosition=bottom;labelBackgroundColor=#ffffff;verticalAlign=top;align=center;perimeter=ellipsePerimeter;outlineConnect=0;aspect=fixed;outline=end;symbol=terminate2;fillColor=none;" vertex="1" parent="237">
                    <mxGeometry x="610" y="95" width="50" height="50" as="geometry"/>
                </mxCell>
                <mxCell id="256" value="Проведено списание средств" style="text;html=1;align=center;verticalAlign=middle;resizable=0;points=[];autosize=1;strokeColor=none;fillColor=none;" vertex="1" parent="237">
                    <mxGeometry x="540" y="58" width="190" height="30" as="geometry"/>
                </mxCell>
                <mxCell id="246" value="Платёжный сервис" style="swimlane;html=1;childLayout=stackLayout;resizeParent=1;resizeParentMax=0;startSize=20;whiteSpace=wrap;strokeColor=default;" vertex="1" collapsed="1" parent="1">
                    <mxGeometry x="370" y="1880" width="150" height="30" as="geometry">
                        <mxRectangle x="260" y="1120" width="40" height="480" as="alternateBounds"/>
                    </mxGeometry>
                </mxCell>
                <mxCell id="251" value="" style="dashed=1;dashPattern=8 4;endArrow=blockThin;endFill=1;startArrow=oval;startFill=0;endSize=6;startSize=4;html=1;rounded=0;jumpStyle=gap;exitX=0.767;exitY=0;exitDx=0;exitDy=0;entryX=0.5;entryY=1;entryDx=0;entryDy=0;entryPerimeter=0;exitPerimeter=0;" edge="1" parent="1" source="246" target="252">
                    <mxGeometry width="160" relative="1" as="geometry">
                        <mxPoint x="485" y="1870" as="sourcePoint"/>
                        <mxPoint x="483" y="1750" as="targetPoint"/>
                    </mxGeometry>
                </mxCell>
                <mxCell id="257" value="Начислеение средств исполнителям" style="swimlane;html=1;childLayout=stackLayout;resizeParent=1;resizeParentMax=0;horizontal=0;startSize=20;horizontalStack=0;whiteSpace=wrap;strokeColor=default;" vertex="1" parent="1">
                    <mxGeometry x="40" y="2000" width="920" height="280" as="geometry"/>
                </mxCell>
                <mxCell id="258" value="Исполнитель" style="swimlane;html=1;startSize=20;horizontal=0;strokeColor=default;" vertex="1" parent="257">
                    <mxGeometry x="20" width="900" height="280" as="geometry"/>
                </mxCell>
                <mxCell id="259" value="" style="edgeStyle=none;html=1;" edge="1" parent="258" source="260" target="263">
                    <mxGeometry relative="1" as="geometry"/>
                </mxCell>
                <mxCell id="260" value="" style="points=[[0.145,0.145,0],[0.5,0,0],[0.855,0.145,0],[1,0.5,0],[0.855,0.855,0],[0.5,1,0],[0.145,0.855,0],[0,0.5,0]];shape=mxgraph.bpmn.event;html=1;verticalLabelPosition=bottom;labelBackgroundColor=#ffffff;verticalAlign=top;align=center;perimeter=ellipsePerimeter;outlineConnect=0;aspect=fixed;outline=standard;symbol=timer;" vertex="1" parent="258">
                    <mxGeometry x="60" y="95" width="50" height="50" as="geometry"/>
                </mxCell>
                <mxCell id="261" value="Последний день&lt;br&gt;месяца" style="text;html=1;align=center;verticalAlign=middle;resizable=0;points=[];autosize=1;strokeColor=none;fillColor=none;" vertex="1" parent="258">
                    <mxGeometry x="25" y="149" width="120" height="40" as="geometry"/>
                </mxCell>
                <mxCell id="262" value="" style="edgeStyle=none;html=1;" edge="1" parent="258" target="264">
                    <mxGeometry relative="1" as="geometry">
                        <mxPoint x="430" y="120" as="sourcePoint"/>
                    </mxGeometry>
                </mxCell>
                <mxCell id="275" value="" style="edgeStyle=none;html=1;" edge="1" parent="258" source="263" target="274">
                    <mxGeometry relative="1" as="geometry"/>
                </mxCell>
                <mxCell id="263" value="Расчёт выплат" style="points=[[0.25,0,0],[0.5,0,0],[0.75,0,0],[1,0.25,0],[1,0.5,0],[1,0.75,0],[0.75,1,0],[0.5,1,0],[0.25,1,0],[0,0.75,0],[0,0.5,0],[0,0.25,0]];shape=mxgraph.bpmn.task;whiteSpace=wrap;rectStyle=rounded;size=10;html=1;taskMarker=abstract;" vertex="1" parent="258">
                    <mxGeometry x="150" y="80" width="120" height="80" as="geometry"/>
                </mxCell>
                <mxCell id="264" value="" style="points=[[0.145,0.145,0],[0.5,0,0],[0.855,0.145,0],[1,0.5,0],[0.855,0.855,0],[0.5,1,0],[0.145,0.855,0],[0,0.5,0]];shape=mxgraph.bpmn.event;html=1;verticalLabelPosition=bottom;labelBackgroundColor=#ffffff;verticalAlign=top;align=center;perimeter=ellipsePerimeter;outlineConnect=0;aspect=fixed;outline=throwing;symbol=message;" vertex="1" parent="258">
                    <mxGeometry x="470" y="95" width="50" height="50" as="geometry"/>
                </mxCell>
                <mxCell id="265" value="Отправка информации&lt;br&gt;о транзакции" style="text;html=1;align=center;verticalAlign=middle;resizable=0;points=[];autosize=1;strokeColor=none;fillColor=none;" vertex="1" parent="258">
                    <mxGeometry x="420" y="53" width="150" height="40" as="geometry"/>
                </mxCell>
                <mxCell id="266" value="" style="dashed=1;dashPattern=8 4;endArrow=blockThin;endFill=1;startArrow=oval;startFill=0;endSize=6;startSize=4;html=1;rounded=0;jumpStyle=gap;exitX=0.5;exitY=1;exitDx=0;exitDy=0;exitPerimeter=0;entryX=0.171;entryY=0.014;entryDx=0;entryDy=0;entryPerimeter=0;" edge="1" parent="258" target="272">
                    <mxGeometry width="160" relative="1" as="geometry">
                        <mxPoint x="494.5" y="145" as="sourcePoint"/>
                        <mxPoint x="495" y="259" as="targetPoint"/>
                    </mxGeometry>
                </mxCell>
                <mxCell id="267" value="" style="edgeStyle=none;html=1;" edge="1" parent="258" source="268" target="270">
                    <mxGeometry relative="1" as="geometry"/>
                </mxCell>
                <mxCell id="268" value="" style="points=[[0.145,0.145,0],[0.5,0,0],[0.855,0.145,0],[1,0.5,0],[0.855,0.855,0],[0.5,1,0],[0.145,0.855,0],[0,0.5,0]];shape=mxgraph.bpmn.event;html=1;verticalLabelPosition=bottom;labelBackgroundColor=#ffffff;verticalAlign=top;align=center;perimeter=ellipsePerimeter;outlineConnect=0;aspect=fixed;outline=catching;symbol=message;strokeColor=default;" vertex="1" parent="258">
                    <mxGeometry x="560" y="95" width="50" height="50" as="geometry"/>
                </mxCell>
                <mxCell id="269" value="Получение информации&lt;br&gt;о транзакции" style="text;html=1;align=center;verticalAlign=middle;resizable=0;points=[];autosize=1;strokeColor=none;fillColor=none;" vertex="1" parent="258">
                    <mxGeometry x="590" y="149" width="160" height="40" as="geometry"/>
                </mxCell>
                <mxCell id="270" value="" style="points=[[0.145,0.145,0],[0.5,0,0],[0.855,0.145,0],[1,0.5,0],[0.855,0.855,0],[0.5,1,0],[0.145,0.855,0],[0,0.5,0]];shape=mxgraph.bpmn.event;html=1;verticalLabelPosition=bottom;labelBackgroundColor=#ffffff;verticalAlign=top;align=center;perimeter=ellipsePerimeter;outlineConnect=0;aspect=fixed;outline=end;symbol=terminate2;fillColor=none;" vertex="1" parent="258">
                    <mxGeometry x="770" y="95" width="50" height="50" as="geometry"/>
                </mxCell>
                <mxCell id="271" value="Проведено начисление средств" style="text;html=1;align=center;verticalAlign=middle;resizable=0;points=[];autosize=1;strokeColor=none;fillColor=none;" vertex="1" parent="258">
                    <mxGeometry x="695" y="58" width="200" height="30" as="geometry"/>
                </mxCell>
                <mxCell id="274" value="Выставление инвойса" style="points=[[0.25,0,0],[0.5,0,0],[0.75,0,0],[1,0.25,0],[1,0.5,0],[1,0.75,0],[0.75,1,0],[0.5,1,0],[0.25,1,0],[0,0.75,0],[0,0.5,0],[0,0.25,0]];shape=mxgraph.bpmn.task;whiteSpace=wrap;rectStyle=rounded;size=10;html=1;taskMarker=abstract;" vertex="1" parent="258">
                    <mxGeometry x="310" y="80" width="120" height="80" as="geometry"/>
                </mxCell>
                <mxCell id="272" value="Платёжный сервис" style="swimlane;html=1;childLayout=stackLayout;resizeParent=1;resizeParentMax=0;startSize=20;whiteSpace=wrap;strokeColor=default;" vertex="1" collapsed="1" parent="1">
                    <mxGeometry x="530" y="2320" width="150" height="30" as="geometry">
                        <mxRectangle x="260" y="1120" width="40" height="480" as="alternateBounds"/>
                    </mxGeometry>
                </mxCell>
                <mxCell id="273" value="" style="dashed=1;dashPattern=8 4;endArrow=blockThin;endFill=1;startArrow=oval;startFill=0;endSize=6;startSize=4;html=1;rounded=0;jumpStyle=gap;exitX=0.767;exitY=0;exitDx=0;exitDy=0;entryX=0.5;entryY=1;entryDx=0;entryDy=0;entryPerimeter=0;exitPerimeter=0;" edge="1" parent="1" source="272" target="268">
                    <mxGeometry width="160" relative="1" as="geometry">
                        <mxPoint x="645" y="2269" as="sourcePoint"/>
                        <mxPoint x="643" y="2149" as="targetPoint"/>
                    </mxGeometry>
                </mxCell>
                <mxCell id="276" value="Просмотр списаний" style="swimlane;html=1;childLayout=stackLayout;resizeParent=1;resizeParentMax=0;horizontal=0;startSize=20;horizontalStack=0;whiteSpace=wrap;fillColor=none;" vertex="1" parent="1">
                    <mxGeometry x="40" y="2440" width="920" height="160" as="geometry"/>
                </mxCell>
                <mxCell id="277" value="Клиент" style="swimlane;html=1;startSize=20;horizontal=0;fillColor=none;" vertex="1" parent="276">
                    <mxGeometry x="20" width="900" height="160" as="geometry"/>
                </mxCell>
                <mxCell id="280" value="" style="points=[[0.145,0.145,0],[0.5,0,0],[0.855,0.145,0],[1,0.5,0],[0.855,0.855,0],[0.5,1,0],[0.145,0.855,0],[0,0.5,0]];shape=mxgraph.bpmn.event;html=1;verticalLabelPosition=bottom;labelBackgroundColor=#ffffff;verticalAlign=top;align=center;perimeter=ellipsePerimeter;outlineConnect=0;aspect=fixed;outline=standard;symbol=general;fillColor=none;" vertex="1" parent="277">
                    <mxGeometry x="60" y="55" width="50" height="50" as="geometry"/>
                </mxCell>
                <mxCell id="281" value="Появление&lt;br&gt;необходимости&lt;br&gt;просмотра списаний" style="text;html=1;align=center;verticalAlign=middle;resizable=0;points=[];autosize=1;strokeColor=none;fillColor=none;" vertex="1" parent="277">
                    <mxGeometry x="15" y="100" width="140" height="60" as="geometry"/>
                </mxCell>
            </root>
        </mxGraphModel>
    </diagram>
</mxfile>